<svg width="128" height="32" viewBox="0 0 128 32" fill="none" xmlns="http://www.w3.org/2000/svg">
<rect width="128" height="32" fill="black"/>
<g clip-path="url(#clip0_463_699)">
<path d="M38.4301 26.0241L31.6982 19.3819C35.5558 14.9925 38.1453 10.4974 38.9727 6.93833C39.5583 4.45808 39.3004 2.42734 38.0594 1.20044L44.7858 7.83736C47.816 10.82 44.9792 18.5781 38.4301 26.0241Z" fill="white"/>
<path d="M7.0484 25.0669C4.52329 25.6433 2.46022 25.3895 1.21379 24.1626C-1.81635 21.1799 1.02575 13.4219 7.57492 5.97583L14.3175 12.618C10.46 17.0021 7.88653 21.5025 7.0484 25.0669Z" fill="#3E30E5"/>
<path d="M38.956 6.933C35.3349 7.76327 30.7682 10.2964 26.3251 14.0935L24.939 12.7449C24.1492 13.644 23.3003 14.5377 22.4085 15.3891C21.5166 16.2406 20.6033 17.1026 19.69 17.8799L14.3174 12.5916C15.1089 11.6925 15.9524 10.8006 16.8479 9.91565C22.1076 4.75947 27.8455 1.29029 32.2349 0.296077C34.76 -0.280356 36.8231 -0.0318022 38.0695 1.1951C39.316 2.42201 39.5416 4.45275 38.956 6.933Z" fill="#3E30E5"/>
<path d="M29.1513 22.0576C23.8915 27.235 18.1536 30.7041 13.7911 31.7301C11.266 32.3065 9.20289 32.058 7.96182 30.8311L1.21387 24.1624C2.4603 25.384 4.52337 25.6432 7.04849 25.0667C10.6642 24.2365 15.2363 21.6822 19.6902 17.9063C20.6035 17.1306 21.5097 16.3004 22.4087 15.4154C23.3005 14.5376 24.1494 13.6438 24.9392 12.7712L31.6979 19.3817C30.8991 20.2807 30.0503 21.1727 29.1513 22.0576Z" fill="white"/>
</g>
<g clip-path="url(#clip1_463_699)">
<path d="M104.716 22.0864C103.56 22.0864 102.429 21.7424 101.468 21.098C100.506 20.4536 99.7568 19.5377 99.3142 18.4661C98.8717 17.3944 98.7559 16.2153 98.9815 15.0777C99.2071 13.94 99.764 12.8951 100.582 12.0749C101.4 11.2547 102.441 10.6962 103.576 10.4699C104.71 10.2436 105.886 10.3597 106.954 10.8036C108.023 11.2475 108.936 11.9992 109.578 12.9636C110.221 13.928 110.564 15.0619 110.564 16.2218C110.562 17.7767 109.946 19.2675 108.849 20.367C107.753 21.4665 106.267 22.0849 104.716 22.0864ZM104.716 12.8139C104.045 12.8178 103.39 13.021 102.834 13.3979C102.278 13.7748 101.846 14.3084 101.591 14.9314C101.337 15.5545 101.273 16.2391 101.406 16.8988C101.54 17.5586 101.865 18.1639 102.341 18.6385C102.817 19.1131 103.422 19.4357 104.081 19.5656C104.739 19.6955 105.422 19.6268 106.041 19.3683C106.661 19.1098 107.19 18.673 107.563 18.113C107.935 17.553 108.134 16.8949 108.134 16.2218C108.134 15.7727 108.045 15.328 107.873 14.9134C107.701 14.4988 107.449 14.1224 107.131 13.8058C106.814 13.4891 106.437 13.2385 106.022 13.0683C105.608 12.8981 105.164 12.8116 104.716 12.8139Z" fill="white"/>
<path d="M93.2439 22.4433H90.6436V16.2217C90.6451 14.572 91.2991 12.9904 92.4621 11.824C93.6251 10.6575 95.2021 10.0015 96.8469 10V12.6052C95.8913 12.6067 94.9753 12.9883 94.2999 13.6663C93.6244 14.3443 93.2447 15.2633 93.2439 16.2217V22.4433Z" fill="white"/>
<path d="M67.9549 12.8566V10.4285C66.4237 10.4307 64.9559 11.0418 63.8731 12.1278C62.7904 13.2137 62.1811 14.6859 62.1788 16.2216H63.358C63.3572 17.1146 63.0032 17.9709 62.3736 18.6023C61.744 19.2337 60.8904 19.5888 60 19.5896V22.0177C61.5322 22.0162 63.0012 21.405 64.0847 20.3184C65.1681 19.2318 65.7774 17.7584 65.7789 16.2216H64.5969C64.5984 15.3291 64.9528 14.4737 65.5823 13.8428C66.2118 13.212 67.0651 12.8573 67.9549 12.8566Z" fill="white"/>
<path d="M115.967 16.2217V11.8796L113.369 10V16.2217C113.371 17.8713 114.025 19.4529 115.188 20.6194C116.351 21.7859 117.928 22.4418 119.572 22.4433V19.8381C118.617 19.8366 117.7 19.4551 117.024 18.7772C116.349 18.0993 115.968 17.1804 115.967 16.2217Z" fill="white"/>
<path d="M124.394 16.2217V11.8796L121.805 10V16.2217C121.807 17.8716 122.462 19.4532 123.625 20.6196C124.789 21.7859 126.366 22.4418 128.011 22.4433V19.8381C127.537 19.8389 127.067 19.7459 126.628 19.5646C126.19 19.3833 125.791 19.1171 125.455 18.7813C125.12 18.4454 124.853 18.0466 124.671 17.6074C124.489 17.1682 124.394 16.6973 124.394 16.2217Z" fill="white"/>
<path d="M70.752 11.8796V22.4433H73.3523V10L70.752 11.8796Z" fill="white"/>
<path d="M87.8441 10L85.6054 11.6168C84.9919 11.1153 84.2832 10.7441 83.5222 10.5257C82.7613 10.3072 81.9641 10.2462 81.1789 10.3462C80.3937 10.4462 79.637 10.7052 78.9547 11.1074C78.2724 11.5097 77.6786 12.0468 77.2096 12.6862C76.7405 13.3256 76.4059 14.0539 76.2261 14.827C76.0462 15.6 76.0249 16.4017 76.1633 17.1832C76.3018 17.9648 76.5971 18.71 77.0315 19.3736C77.4658 20.0372 78.0301 20.6054 78.69 21.0436C78.0337 21.5006 77.4773 22.0872 77.0551 22.7675C76.633 23.4479 76.3538 24.2076 76.2349 25H78.7328C78.9268 24.2776 79.3528 23.6395 79.945 23.1844C80.5371 22.7294 81.2622 22.4828 82.0082 22.4828C82.7541 22.4828 83.4793 22.7294 84.0714 23.1844C84.6635 23.6395 85.0895 24.2776 85.2835 25H87.77C87.6479 24.2085 87.3659 23.4503 86.9413 22.7719C86.5167 22.0935 85.9584 21.5093 85.3006 21.055C86.0845 20.5175 86.7258 19.7964 87.169 18.9542C87.6122 18.112 87.8439 17.174 87.8441 16.2217V10ZM81.9968 19.6296C81.3247 19.6296 80.6678 19.4297 80.109 19.0553C79.5502 18.6808 79.1147 18.1485 78.8575 17.5258C78.6004 16.9031 78.5331 16.2179 78.6642 15.5568C78.7953 14.8957 79.1189 14.2885 79.5941 13.8119C80.0693 13.3353 80.6748 13.0107 81.3339 12.8792C81.993 12.7477 82.6762 12.8152 83.2971 13.0732C83.9179 13.3311 84.4486 13.7679 84.822 14.3283C85.1953 14.8888 85.3946 15.5476 85.3946 16.2217C85.3939 17.1253 85.0356 17.9917 84.3986 18.6306C83.7615 19.2695 82.8977 19.6288 81.9968 19.6296Z" fill="white"/>
</g>
<defs>
<clipPath id="clip0_463_699">
<rect width="46" height="32" fill="white"/>
</clipPath>
<clipPath id="clip1_463_699">
<rect width="68" height="15" fill="white" transform="translate(60 10)"/>
</clipPath>
</defs>
</svg>
