<svg width="225" height="44" viewBox="0 0 225 44" fill="none" xmlns="http://www.w3.org/2000/svg">
<g clip-path="url(#clip0_931_12750)">
<path d="M51.8951 35.7829L42.8047 26.6499C48.0137 20.6145 51.5106 14.4337 52.6278 9.53999C53.4186 6.12965 53.0704 3.33738 51.3945 1.65039L60.4777 10.7762C64.5694 14.8773 60.7388 25.5446 51.8951 35.7829Z" fill="black"/>
<path d="M9.51949 34.4665C6.10968 35.2591 3.3238 34.9101 1.64066 33.2231C-2.45111 29.1219 1.38674 18.4546 10.2305 8.21631L19.3354 17.3493C14.1264 23.3774 10.6513 29.5655 9.51949 34.4665Z" fill="#3E30E5"/>
<path d="M52.606 9.53253C47.7162 10.6742 41.5495 14.1572 35.5497 19.3782L33.6779 17.5239C32.6114 18.7601 31.4652 19.989 30.2609 21.1597C29.0565 22.3304 27.8232 23.5157 26.5899 24.5846L19.335 17.3131C20.4039 16.0769 21.5429 14.8504 22.752 13.6337C29.8546 6.54394 37.6028 1.77382 43.5301 0.406771C46.9399 -0.385825 49.7258 -0.0440637 51.4089 1.64293C53.0921 3.32992 53.3968 6.12219 52.606 9.53253Z" fill="#3E30E5"/>
<path d="M39.3662 30.3293C32.2636 37.4482 24.5154 42.2183 18.6244 43.629C15.2146 44.4216 12.4287 44.0798 10.7528 42.3928L1.64062 33.2234C3.32377 34.9031 6.10965 35.2594 9.51946 34.4668C14.402 33.3252 20.576 29.8131 26.5903 24.6212C27.8236 23.5547 29.0473 22.4131 30.2613 21.1963C31.4656 19.9892 32.6119 18.7603 33.6783 17.5605L42.805 26.65C41.7264 27.8861 40.5802 29.1126 39.3662 30.3293Z" fill="black"/>
</g>
<g clip-path="url(#clip1_931_12750)">
<path d="M176.79 33.7325C174.395 33.7325 172.054 33.0073 170.063 31.6487C168.072 30.29 166.521 28.359 165.604 26.0997C164.688 23.8403 164.448 21.3542 164.915 18.9558C165.382 16.5573 166.536 14.3541 168.229 12.6249C169.922 10.8957 172.079 9.71809 174.428 9.241C176.776 8.76392 179.211 9.00878 181.423 9.94462C183.635 10.8805 185.526 12.4653 186.856 14.4986C188.187 16.5319 188.897 18.9225 188.897 21.368C188.894 24.6462 187.617 27.7894 185.347 30.1075C183.077 32.4256 180 33.7293 176.79 33.7325ZM176.79 14.1829C175.4 14.1912 174.044 14.6197 172.892 15.4143C171.741 16.2088 170.846 17.3338 170.319 18.6474C169.793 19.961 169.66 21.4044 169.936 22.7953C170.212 24.1863 170.885 25.4626 171.871 26.4633C172.856 27.4639 174.11 28.144 175.474 28.4179C176.837 28.6917 178.25 28.547 179.533 28.0019C180.816 27.4569 181.912 26.536 182.684 25.3553C183.455 24.1747 183.866 22.7872 183.866 21.368C183.866 20.4211 183.682 19.4837 183.325 18.6095C182.969 17.7354 182.447 16.9418 181.79 16.2742C181.132 15.6066 180.352 15.0782 179.494 14.7193C178.636 14.3604 177.717 14.1782 176.79 14.1829Z" fill="black"/>
<path d="M153.035 34.4847H147.65V21.3674C147.654 17.8894 149.008 14.5548 151.416 12.0955C153.824 9.63622 157.089 8.25319 160.495 8.25V13.7427C158.516 13.7459 156.62 14.5504 155.221 15.9798C153.822 17.4092 153.036 19.3467 153.035 21.3674V34.4847Z" fill="black"/>
<path d="M100.673 14.2726V9.15332C97.5028 9.1581 94.4635 10.4465 92.2216 12.736C89.9798 15.0255 88.7182 18.1294 88.7136 21.3673H91.155C91.1535 23.25 90.4204 25.0552 89.1169 26.3865C87.8133 27.7178 86.0457 28.4664 84.2021 28.468V33.5873C87.3747 33.5841 90.4163 32.2956 92.6596 30.0046C94.9029 27.7136 96.1646 24.6072 96.1677 21.3673H93.7204C93.7235 19.4856 94.4572 17.682 95.7606 16.352C97.064 15.022 98.8307 14.2742 100.673 14.2726Z" fill="black"/>
<path d="M200.084 21.3674V12.2129L194.706 8.25V21.3674C194.709 24.8453 196.063 28.1799 198.471 30.6392C200.88 33.0985 204.145 34.4815 207.55 34.4847V28.992C205.571 28.9889 203.674 28.1845 202.275 26.7553C200.875 25.3261 200.087 23.3886 200.084 21.3674Z" fill="black"/>
<path d="M217.533 21.3674V12.2129L212.173 8.25V21.3674C212.178 24.8459 213.533 28.1805 215.942 30.6396C218.351 33.0987 221.617 34.4815 225.023 34.4847V28.992C224.041 28.9936 223.068 28.7977 222.161 28.4153C221.253 28.033 220.427 27.4718 219.732 26.7638C219.037 26.0558 218.484 25.2148 218.107 24.2889C217.73 23.363 217.535 22.3702 217.533 21.3674Z" fill="black"/>
<path d="M106.465 12.2129V34.4847H111.849V8.25L106.465 12.2129Z" fill="black"/>
<path d="M141.854 8.25L137.218 11.6588C135.948 10.6015 134.48 9.81878 132.905 9.35825C131.329 8.89773 129.679 8.76899 128.053 8.97983C126.427 9.19068 124.86 9.73672 123.448 10.5848C122.035 11.4329 120.806 12.5653 119.834 13.9134C118.863 15.2615 118.17 16.797 117.798 18.4269C117.425 20.0567 117.381 21.7469 117.668 23.3947C117.955 25.0425 118.566 26.6137 119.466 28.0128C120.365 29.4118 121.533 30.6097 122.9 31.5336C121.541 32.497 120.389 33.7338 119.515 35.1682C118.64 36.6026 118.062 38.2043 117.816 39.875H122.988C123.39 38.3519 124.272 37.0066 125.498 36.0472C126.724 35.0878 128.225 34.5679 129.77 34.5679C131.315 34.5679 132.816 35.0878 134.042 36.0472C135.268 37.0066 136.15 38.3519 136.552 39.875H141.7C141.447 38.2062 140.863 36.6076 139.984 35.1774C139.105 33.7472 137.949 32.5155 136.587 31.5577C138.21 30.4245 139.538 28.9041 140.456 27.1284C141.373 25.3527 141.853 23.3752 141.854 21.3674V8.25ZM129.746 28.5524C128.355 28.5524 126.995 28.131 125.838 27.3415C124.681 26.552 123.779 25.4298 123.246 24.117C122.714 22.8041 122.575 21.3594 122.846 19.9656C123.118 18.5719 123.788 17.2916 124.772 16.2868C125.756 15.2819 127.009 14.5976 128.374 14.3204C129.739 14.0431 131.153 14.1854 132.439 14.7293C133.724 15.2731 134.823 16.194 135.596 17.3756C136.369 18.5571 136.782 19.9463 136.782 21.3674C136.78 23.2725 136.039 25.0991 134.719 26.4462C133.4 27.7933 131.612 28.5508 129.746 28.5524Z" fill="black"/>
</g>
<defs>
<clipPath id="clip0_931_12750">
<rect width="62.1166" height="44" fill="white"/>
</clipPath>
<clipPath id="clip1_931_12750">
<rect width="140.798" height="31.625" fill="white" transform="translate(84.2021 8.25)"/>
</clipPath>
</defs>
</svg>
