{
    "asset" : {
        "generator" : "Khronos glTF Blender I/O v1.8.19",
        "version" : "2.0"
    },
    "scene" : 0,
    "scenes" : [
        {
            "name" : "Scene",
            "nodes" : [
                0,
                1
            ]
        }
    ],
    "nodes" : [
        {
            "mesh" : 0,
            "name" : "Cube",
            "translation" : [
                1,
                0,
                0
            ]
        },
        {
            "mesh" : 1,
            "name" : "Cube.001",
            "rotation" : [
                0,
                0,
                -1,
                -4.371138828673793e-08
            ],
            "translation" : [
                -1,
                0.39000001549720764,
                0
            ]
        }
    ],
    "materials" : [
        {
            "doubleSided" : true,
            "name" : "Material.001",
            "pbrMetallicRoughness" : {}
        }
    ],
    "meshes" : [
        {
            "name" : "Cube.001",
            "primitives" : [
                {
                    "attributes" : {
                        "POSITION" : 0,
                        "NORMAL" : 1,
                        "TEXCOORD_0" : 2
                    },
                    "indices" : 3,
                    "material" : 0
                }
            ]
        },
        {
            "name" : "Cube.002",
            "primitives" : [
                {
                    "attributes" : {
                        "POSITION" : 4,
                        "NORMAL" : 5,
                        "TEXCOORD_0" : 6
                    },
                    "indices" : 7,
                    "material" : 0
                }
            ]
        }
    ],
    "accessors" : [
        {
            "bufferView" : 0,
            "componentType" : 5126,
            "count" : 10651,
            "max" : [
                -0.0064048171043396,
                0.19485248625278473,
                0.9935952425003052
            ],
            "min" : [
                -1,
                -0.19485248625278473,
                -0.9935952425003052
            ],
            "type" : "VEC3"
        },
        {
            "bufferView" : 1,
            "componentType" : 5126,
            "count" : 10651,
            "type" : "VEC3"
        },
        {
            "bufferView" : 2,
            "componentType" : 5126,
            "count" : 10651,
            "type" : "VEC2"
        },
        {
            "bufferView" : 3,
            "componentType" : 5123,
            "count" : 18204,
            "type" : "SCALAR"
        },
        {
            "bufferView" : 4,
            "componentType" : 5126,
            "count" : 10136,
            "max" : [
                -0.0064048171043396,
                0.19485248625278473,
                0.9935952425003052
            ],
            "min" : [
                -1,
                -0.19485248625278473,
                -0.9935952425003052
            ],
            "type" : "VEC3"
        },
        {
            "bufferView" : 5,
            "componentType" : 5126,
            "count" : 10136,
            "type" : "VEC3"
        },
        {
            "bufferView" : 6,
            "componentType" : 5126,
            "count" : 10136,
            "type" : "VEC2"
        },
        {
            "bufferView" : 7,
            "componentType" : 5123,
            "count" : 17412,
            "type" : "SCALAR"
        }
    ],
    "bufferViews" : [
        {
            "buffer" : 0,
            "byteLength" : 127812,
            "byteOffset" : 0
        },
        {
            "buffer" : 0,
            "byteLength" : 127812,
            "byteOffset" : 127812
        },
        {
            "buffer" : 0,
            "byteLength" : 85208,
            "byteOffset" : 255624
        },
        {
            "buffer" : 0,
            "byteLength" : 36408,
            "byteOffset" : 340832
        },
        {
            "buffer" : 0,
            "byteLength" : 121632,
            "byteOffset" : 377240
        },
        {
            "buffer" : 0,
            "byteLength" : 121632,
            "byteOffset" : 498872
        },
        {
            "buffer" : 0,
            "byteLength" : 81088,
            "byteOffset" : 620504
        },
        {
            "buffer" : 0,
            "byteLength" : 34824,
            "byteOffset" : 701592
        }
    ],
    "buffers" : [
        {
            "byteLength" : 736416,
            "uri" : "data:application/octet-stream;base64,"
        }
    ]
}
