<svg width="466" height="64" viewBox="0 0 466 64" fill="none" xmlns="http://www.w3.org/2000/svg">
<path d="M9.036 27L0.792 1.8H6.84L14.004 24.12H10.98L18.468 1.8H23.868L31.068 24.12H28.152L35.496 1.8H41.076L32.832 27H26.568L20.196 7.416H21.852L15.3 27H9.036ZM52.1063 27.288C49.8983 27.288 47.9543 26.856 46.2743 25.992C44.6183 25.128 43.3343 23.952 42.4223 22.464C41.5103 20.952 41.0543 19.236 41.0543 17.316C41.0543 15.372 41.4983 13.656 42.3863 12.168C43.2983 10.656 44.5343 9.48 46.0943 8.64C47.6543 7.776 49.4183 7.344 51.3863 7.344C53.2823 7.344 54.9863 7.752 56.4983 8.568C58.0343 9.36 59.2463 10.512 60.1343 12.024C61.0223 13.512 61.4663 15.3 61.4663 17.388C61.4663 17.604 61.4543 17.856 61.4303 18.144C61.4063 18.408 61.3823 18.66 61.3583 18.9H45.6263V15.624H58.4063L56.2463 16.596C56.2463 15.588 56.0423 14.712 55.6343 13.968C55.2263 13.224 54.6623 12.648 53.9423 12.24C53.2223 11.808 52.3823 11.592 51.4223 11.592C50.4623 11.592 49.6103 11.808 48.8663 12.24C48.1463 12.648 47.5823 13.236 47.1743 14.004C46.7663 14.748 46.5623 15.636 46.5623 16.668V17.532C46.5623 18.588 46.7903 19.524 47.2463 20.34C47.7263 21.132 48.3863 21.744 49.2263 22.176C50.0903 22.584 51.0983 22.788 52.2503 22.788C53.2823 22.788 54.1823 22.632 54.9503 22.32C55.7423 22.008 56.4623 21.54 57.1103 20.916L60.0983 24.156C59.2103 25.164 58.0943 25.944 56.7503 26.496C55.4063 27.024 53.8583 27.288 52.1063 27.288ZM65.2053 27V0.287998H70.8213V27H65.2053ZM85.3934 27.288C83.3054 27.288 81.4454 26.868 79.8134 26.028C78.1814 25.164 76.8974 23.976 75.9614 22.464C75.0494 20.952 74.5934 19.236 74.5934 17.316C74.5934 15.372 75.0494 13.656 75.9614 12.168C76.8974 10.656 78.1814 9.48 79.8134 8.64C81.4454 7.776 83.3054 7.344 85.3934 7.344C87.4334 7.344 89.2094 7.776 90.7214 8.64C92.2334 9.48 93.3494 10.692 94.0694 12.276L89.7134 14.616C89.2094 13.704 88.5734 13.032 87.8054 12.6C87.0614 12.168 86.2454 11.952 85.3574 11.952C84.3974 11.952 83.5334 12.168 82.7654 12.6C81.9974 13.032 81.3854 13.644 80.9294 14.436C80.4974 15.228 80.2814 16.188 80.2814 17.316C80.2814 18.444 80.4974 19.404 80.9294 20.196C81.3854 20.988 81.9974 21.6 82.7654 22.032C83.5334 22.464 84.3974 22.68 85.3574 22.68C86.2454 22.68 87.0614 22.476 87.8054 22.068C88.5734 21.636 89.2094 20.952 89.7134 20.016L94.0694 22.392C93.3494 23.952 92.2334 25.164 90.7214 26.028C89.2094 26.868 87.4334 27.288 85.3934 27.288ZM106.273 27.288C104.209 27.288 102.373 26.856 100.765 25.992C99.1808 25.128 97.9208 23.952 96.9848 22.464C96.0728 20.952 95.6168 19.236 95.6168 17.316C95.6168 15.372 96.0728 13.656 96.9848 12.168C97.9208 10.656 99.1808 9.48 100.765 8.64C102.373 7.776 104.209 7.344 106.273 7.344C108.313 7.344 110.137 7.776 111.745 8.64C113.353 9.48 114.613 10.644 115.525 12.132C116.437 13.62 116.893 15.348 116.893 17.316C116.893 19.236 116.437 20.952 115.525 22.464C114.613 23.952 113.353 25.128 111.745 25.992C110.137 26.856 108.313 27.288 106.273 27.288ZM106.273 22.68C107.209 22.68 108.049 22.464 108.793 22.032C109.537 21.6 110.125 20.988 110.557 20.196C110.989 19.38 111.205 18.42 111.205 17.316C111.205 16.188 110.989 15.228 110.557 14.436C110.125 13.644 109.537 13.032 108.793 12.6C108.049 12.168 107.209 11.952 106.273 11.952C105.337 11.952 104.497 12.168 103.753 12.6C103.009 13.032 102.409 13.644 101.953 14.436C101.521 15.228 101.305 16.188 101.305 17.316C101.305 18.42 101.521 19.38 101.953 20.196C102.409 20.988 103.009 21.6 103.753 22.032C104.497 22.464 105.337 22.68 106.273 22.68ZM145.451 7.344C146.987 7.344 148.343 7.656 149.519 8.28C150.719 8.88 151.655 9.816 152.327 11.088C153.023 12.336 153.371 13.944 153.371 15.912V27H147.755V16.776C147.755 15.216 147.431 14.064 146.783 13.32C146.135 12.576 145.223 12.204 144.047 12.204C143.231 12.204 142.499 12.396 141.851 12.78C141.203 13.14 140.699 13.692 140.339 14.436C139.979 15.18 139.799 16.128 139.799 17.28V27H134.183V16.776C134.183 15.216 133.859 14.064 133.211 13.32C132.587 12.576 131.687 12.204 130.511 12.204C129.695 12.204 128.963 12.396 128.315 12.78C127.667 13.14 127.163 13.692 126.803 14.436C126.443 15.18 126.263 16.128 126.263 17.28V27H120.647V7.632H126.011V12.924L125.003 11.376C125.675 10.056 126.623 9.06 127.847 8.388C129.095 7.692 130.511 7.344 132.095 7.344C133.871 7.344 135.419 7.8 136.739 8.712C138.083 9.6 138.971 10.968 139.403 12.816L137.423 12.276C138.071 10.764 139.103 9.564 140.519 8.676C141.959 7.788 143.603 7.344 145.451 7.344ZM168.157 27.288C165.949 27.288 164.005 26.856 162.325 25.992C160.669 25.128 159.385 23.952 158.473 22.464C157.561 20.952 157.105 19.236 157.105 17.316C157.105 15.372 157.549 13.656 158.437 12.168C159.349 10.656 160.585 9.48 162.145 8.64C163.705 7.776 165.469 7.344 167.437 7.344C169.333 7.344 171.037 7.752 172.549 8.568C174.085 9.36 175.297 10.512 176.185 12.024C177.073 13.512 177.517 15.3 177.517 17.388C177.517 17.604 177.505 17.856 177.481 18.144C177.457 18.408 177.433 18.66 177.409 18.9H161.677V15.624H174.457L172.297 16.596C172.297 15.588 172.093 14.712 171.685 13.968C171.277 13.224 170.713 12.648 169.993 12.24C169.273 11.808 168.433 11.592 167.473 11.592C166.513 11.592 165.661 11.808 164.917 12.24C164.197 12.648 163.633 13.236 163.225 14.004C162.817 14.748 162.613 15.636 162.613 16.668V17.532C162.613 18.588 162.841 19.524 163.297 20.34C163.777 21.132 164.437 21.744 165.277 22.176C166.141 22.584 167.149 22.788 168.301 22.788C169.333 22.788 170.233 22.632 171.001 22.32C171.793 22.008 172.513 21.54 173.161 20.916L176.149 24.156C175.261 25.164 174.145 25.944 172.801 26.496C171.457 27.024 169.909 27.288 168.157 27.288ZM200.667 27.288C198.603 27.288 196.767 26.856 195.159 25.992C193.575 25.128 192.315 23.952 191.379 22.464C190.467 20.952 190.011 19.236 190.011 17.316C190.011 15.372 190.467 13.656 191.379 12.168C192.315 10.656 193.575 9.48 195.159 8.64C196.767 7.776 198.603 7.344 200.667 7.344C202.707 7.344 204.531 7.776 206.139 8.64C207.747 9.48 209.007 10.644 209.919 12.132C210.831 13.62 211.287 15.348 211.287 17.316C211.287 19.236 210.831 20.952 209.919 22.464C209.007 23.952 207.747 25.128 206.139 25.992C204.531 26.856 202.707 27.288 200.667 27.288ZM200.667 22.68C201.603 22.68 202.443 22.464 203.187 22.032C203.931 21.6 204.519 20.988 204.951 20.196C205.383 19.38 205.599 18.42 205.599 17.316C205.599 16.188 205.383 15.228 204.951 14.436C204.519 13.644 203.931 13.032 203.187 12.6C202.443 12.168 201.603 11.952 200.667 11.952C199.731 11.952 198.891 12.168 198.147 12.6C197.403 13.032 196.803 13.644 196.347 14.436C195.915 15.228 195.699 16.188 195.699 17.316C195.699 18.42 195.915 19.38 196.347 20.196C196.803 20.988 197.403 21.6 198.147 22.032C198.891 22.464 199.731 22.68 200.667 22.68ZM226.813 7.344C228.349 7.344 229.717 7.656 230.917 8.28C232.141 8.88 233.101 9.816 233.797 11.088C234.493 12.336 234.841 13.944 234.841 15.912V27H229.225V16.776C229.225 15.216 228.877 14.064 228.181 13.32C227.509 12.576 226.549 12.204 225.301 12.204C224.413 12.204 223.609 12.396 222.889 12.78C222.193 13.14 221.641 13.704 221.233 14.472C220.849 15.24 220.657 16.224 220.657 17.424V27H215.041V7.632H220.405V12.996L219.397 11.376C220.093 10.08 221.089 9.084 222.385 8.388C223.681 7.692 225.157 7.344 226.813 7.344ZM251.38 27.288C249.676 27.288 248.212 26.928 246.988 26.208C245.764 25.488 244.828 24.396 244.18 22.932C243.532 21.444 243.208 19.572 243.208 17.316C243.208 15.036 243.544 13.164 244.216 11.7C244.912 10.236 245.872 9.144 247.096 8.424C248.32 7.704 249.748 7.344 251.38 7.344C253.204 7.344 254.836 7.752 256.276 8.568C257.74 9.384 258.892 10.536 259.732 12.024C260.596 13.512 261.028 15.276 261.028 17.316C261.028 19.332 260.596 21.084 259.732 22.572C258.892 24.06 257.74 25.224 256.276 26.064C254.836 26.88 253.204 27.288 251.38 27.288ZM239.932 27V0.287998H245.548V11.556L245.188 17.28L245.296 23.04V27H239.932ZM250.408 22.68C251.344 22.68 252.172 22.464 252.892 22.032C253.636 21.6 254.224 20.988 254.656 20.196C255.112 19.38 255.34 18.42 255.34 17.316C255.34 16.188 255.112 15.228 254.656 14.436C254.224 13.644 253.636 13.032 252.892 12.6C252.172 12.168 251.344 11.952 250.408 11.952C249.472 11.952 248.632 12.168 247.888 12.6C247.144 13.032 246.556 13.644 246.124 14.436C245.692 15.228 245.476 16.188 245.476 17.316C245.476 18.42 245.692 19.38 246.124 20.196C246.556 20.988 247.144 21.6 247.888 22.032C248.632 22.464 249.472 22.68 250.408 22.68ZM274.003 27.288C271.939 27.288 270.103 26.856 268.495 25.992C266.911 25.128 265.651 23.952 264.715 22.464C263.803 20.952 263.347 19.236 263.347 17.316C263.347 15.372 263.803 13.656 264.715 12.168C265.651 10.656 266.911 9.48 268.495 8.64C270.103 7.776 271.939 7.344 274.003 7.344C276.043 7.344 277.867 7.776 279.475 8.64C281.083 9.48 282.343 10.644 283.255 12.132C284.167 13.62 284.623 15.348 284.623 17.316C284.623 19.236 284.167 20.952 283.255 22.464C282.343 23.952 281.083 25.128 279.475 25.992C277.867 26.856 276.043 27.288 274.003 27.288ZM274.003 22.68C274.939 22.68 275.779 22.464 276.523 22.032C277.267 21.6 277.855 20.988 278.287 20.196C278.719 19.38 278.935 18.42 278.935 17.316C278.935 16.188 278.719 15.228 278.287 14.436C277.855 13.644 277.267 13.032 276.523 12.6C275.779 12.168 274.939 11.952 274.003 11.952C273.067 11.952 272.227 12.168 271.483 12.6C270.739 13.032 270.139 13.644 269.683 14.436C269.251 15.228 269.035 16.188 269.035 17.316C269.035 18.42 269.251 19.38 269.683 20.196C270.139 20.988 270.739 21.6 271.483 22.032C272.227 22.464 273.067 22.68 274.003 22.68ZM299.941 27V23.22L299.581 22.392V15.624C299.581 14.424 299.209 13.488 298.465 12.816C297.745 12.144 296.629 11.808 295.117 11.808C294.085 11.808 293.065 11.976 292.057 12.312C291.073 12.624 290.233 13.056 289.537 13.608L287.521 9.684C288.577 8.94 289.849 8.364 291.337 7.956C292.825 7.548 294.337 7.344 295.873 7.344C298.825 7.344 301.117 8.04 302.749 9.432C304.381 10.824 305.197 12.996 305.197 15.948V27H299.941ZM294.037 27.288C292.525 27.288 291.229 27.036 290.149 26.532C289.069 26.004 288.241 25.296 287.665 24.408C287.089 23.52 286.801 22.524 286.801 21.42C286.801 20.268 287.077 19.26 287.629 18.396C288.205 17.532 289.105 16.86 290.329 16.38C291.553 15.876 293.149 15.624 295.117 15.624H300.265V18.9H295.729C294.409 18.9 293.497 19.116 292.993 19.548C292.513 19.98 292.273 20.52 292.273 21.168C292.273 21.888 292.549 22.464 293.101 22.896C293.677 23.304 294.457 23.508 295.441 23.508C296.377 23.508 297.217 23.292 297.961 22.86C298.705 22.404 299.245 21.744 299.581 20.88L300.445 23.472C300.037 24.72 299.293 25.668 298.213 26.316C297.133 26.964 295.741 27.288 294.037 27.288ZM310.28 27V7.632H315.644V13.104L314.888 11.52C315.464 10.152 316.388 9.12 317.66 8.424C318.932 7.704 320.48 7.344 322.304 7.344V12.528C322.064 12.504 321.848 12.492 321.656 12.492C321.464 12.468 321.26 12.456 321.044 12.456C319.508 12.456 318.26 12.9 317.3 13.788C316.364 14.652 315.896 16.008 315.896 17.856V27H310.28ZM333.818 27.288C331.994 27.288 330.35 26.88 328.886 26.064C327.422 25.224 326.258 24.06 325.394 22.572C324.554 21.084 324.134 19.332 324.134 17.316C324.134 15.276 324.554 13.512 325.394 12.024C326.258 10.536 327.422 9.384 328.886 8.568C330.35 7.752 331.994 7.344 333.818 7.344C335.45 7.344 336.878 7.704 338.102 8.424C339.326 9.144 340.274 10.236 340.946 11.7C341.618 13.164 341.954 15.036 341.954 17.316C341.954 19.572 341.63 21.444 340.982 22.932C340.334 24.396 339.398 25.488 338.174 26.208C336.974 26.928 335.522 27.288 333.818 27.288ZM334.79 22.68C335.702 22.68 336.53 22.464 337.274 22.032C338.018 21.6 338.606 20.988 339.038 20.196C339.494 19.38 339.722 18.42 339.722 17.316C339.722 16.188 339.494 15.228 339.038 14.436C338.606 13.644 338.018 13.032 337.274 12.6C336.53 12.168 335.702 11.952 334.79 11.952C333.854 11.952 333.014 12.168 332.27 12.6C331.526 13.032 330.926 13.644 330.47 14.436C330.038 15.228 329.822 16.188 329.822 17.316C329.822 18.42 330.038 19.38 330.47 20.196C330.926 20.988 331.526 21.6 332.27 22.032C333.014 22.464 333.854 22.68 334.79 22.68ZM339.866 27V23.04L339.974 17.28L339.614 11.556V0.287998H345.23V27H339.866ZM368.543 27.288C366.263 27.288 364.487 26.712 363.215 25.56C361.943 24.384 361.307 22.644 361.307 20.34V3.348H366.923V20.268C366.923 21.084 367.139 21.72 367.571 22.176C368.003 22.608 368.591 22.824 369.335 22.824C370.223 22.824 370.979 22.584 371.603 22.104L373.115 26.064C372.539 26.472 371.843 26.784 371.027 27C370.235 27.192 369.407 27.288 368.543 27.288ZM358.319 12.384V8.064H371.747V12.384H358.319ZM384.886 27.288C382.822 27.288 380.986 26.856 379.378 25.992C377.794 25.128 376.534 23.952 375.598 22.464C374.686 20.952 374.23 19.236 374.23 17.316C374.23 15.372 374.686 13.656 375.598 12.168C376.534 10.656 377.794 9.48 379.378 8.64C380.986 7.776 382.822 7.344 384.886 7.344C386.926 7.344 388.75 7.776 390.358 8.64C391.966 9.48 393.226 10.644 394.138 12.132C395.05 13.62 395.506 15.348 395.506 17.316C395.506 19.236 395.05 20.952 394.138 22.464C393.226 23.952 391.966 25.128 390.358 25.992C388.75 26.856 386.926 27.288 384.886 27.288ZM384.886 22.68C385.822 22.68 386.662 22.464 387.406 22.032C388.15 21.6 388.738 20.988 389.17 20.196C389.602 19.38 389.818 18.42 389.818 17.316C389.818 16.188 389.602 15.228 389.17 14.436C388.738 13.644 388.15 13.032 387.406 12.6C386.662 12.168 385.822 11.952 384.886 11.952C383.95 11.952 383.11 12.168 382.366 12.6C381.622 13.032 381.022 13.644 380.566 14.436C380.134 15.228 379.918 16.188 379.918 17.316C379.918 18.42 380.134 19.38 380.566 20.196C381.022 20.988 381.622 21.6 382.366 22.032C383.11 22.464 383.95 22.68 384.886 22.68ZM10.512 63.288C8.232 63.288 6.456 62.712 5.184 61.56C3.912 60.384 3.276 58.644 3.276 56.34V39.348H8.892V56.268C8.892 57.084 9.108 57.72 9.54 58.176C9.972 58.608 10.56 58.824 11.304 58.824C12.192 58.824 12.948 58.584 13.572 58.104L15.084 62.064C14.508 62.472 13.812 62.784 12.996 63C12.204 63.192 11.376 63.288 10.512 63.288ZM0.288 48.384V44.064H13.716V48.384H0.288ZM30.0085 43.344C31.5445 43.344 32.9125 43.656 34.1125 44.28C35.3365 44.88 36.2965 45.816 36.9925 47.088C37.6885 48.336 38.0365 49.944 38.0365 51.912V63H32.4205V52.776C32.4205 51.216 32.0725 50.064 31.3765 49.32C30.7045 48.576 29.7445 48.204 28.4965 48.204C27.6085 48.204 26.8045 48.396 26.0845 48.78C25.3885 49.14 24.8365 49.704 24.4285 50.472C24.0445 51.24 23.8525 52.224 23.8525 53.424V63H18.2365V36.288H23.8525V48.996L22.5925 47.376C23.2885 46.08 24.2845 45.084 25.5805 44.388C26.8765 43.692 28.3525 43.344 30.0085 43.344ZM52.8798 63.288C50.6718 63.288 48.7278 62.856 47.0478 61.992C45.3918 61.128 44.1078 59.952 43.1958 58.464C42.2838 56.952 41.8278 55.236 41.8278 53.316C41.8278 51.372 42.2718 49.656 43.1598 48.168C44.0718 46.656 45.3078 45.48 46.8678 44.64C48.4278 43.776 50.1918 43.344 52.1598 43.344C54.0558 43.344 55.7598 43.752 57.2718 44.568C58.8078 45.36 60.0198 46.512 60.9078 48.024C61.7958 49.512 62.2398 51.3 62.2398 53.388C62.2398 53.604 62.2278 53.856 62.2038 54.144C62.1798 54.408 62.1558 54.66 62.1318 54.9H46.3998V51.624H59.1798L57.0198 52.596C57.0198 51.588 56.8158 50.712 56.4078 49.968C55.9998 49.224 55.4358 48.648 54.7158 48.24C53.9958 47.808 53.1558 47.592 52.1958 47.592C51.2358 47.592 50.3838 47.808 49.6398 48.24C48.9198 48.648 48.3558 49.236 47.9478 50.004C47.5398 50.748 47.3358 51.636 47.3358 52.668V53.532C47.3358 54.588 47.5638 55.524 48.0198 56.34C48.4998 57.132 49.1598 57.744 49.9998 58.176C50.8638 58.584 51.8718 58.788 53.0238 58.788C54.0558 58.788 54.9558 58.632 55.7238 58.32C56.5158 58.008 57.2358 57.54 57.8838 56.916L60.8718 60.156C59.9838 61.164 58.8678 61.944 57.5238 62.496C56.1798 63.024 54.6318 63.288 52.8798 63.288ZM352.764 63V43.2C352.764 41.016 353.412 39.276 354.708 37.98C356.004 36.66 357.852 36 360.252 36C361.068 36 361.848 36.084 362.592 36.252C363.36 36.42 364.008 36.684 364.536 37.044L363.06 41.112C362.748 40.896 362.4 40.728 362.016 40.608C361.632 40.488 361.224 40.428 360.792 40.428C359.976 40.428 359.34 40.668 358.884 41.148C358.452 41.604 358.236 42.3 358.236 43.236V45.036L358.38 47.448V63H352.764ZM349.776 48.384V44.064H363.204V48.384H349.776ZM374.174 63.288C372.566 63.288 371.126 62.976 369.854 62.352C368.606 61.728 367.634 60.78 366.938 59.508C366.242 58.212 365.894 56.568 365.894 54.576V43.632H371.51V53.748C371.51 55.356 371.846 56.544 372.518 57.312C373.214 58.056 374.186 58.428 375.434 58.428C376.298 58.428 377.066 58.248 377.738 57.888C378.41 57.504 378.938 56.928 379.322 56.16C379.706 55.368 379.898 54.384 379.898 53.208V43.632H385.514V63H380.186V57.672L381.158 59.22C380.51 60.564 379.55 61.584 378.278 62.28C377.03 62.952 375.662 63.288 374.174 63.288ZM398.637 63.288C396.357 63.288 394.581 62.712 393.309 61.56C392.037 60.384 391.401 58.644 391.401 56.34V39.348H397.017V56.268C397.017 57.084 397.233 57.72 397.665 58.176C398.097 58.608 398.685 58.824 399.429 58.824C400.317 58.824 401.073 58.584 401.697 58.104L403.209 62.064C402.633 62.472 401.937 62.784 401.121 63C400.329 63.192 399.501 63.288 398.637 63.288ZM388.413 48.384V44.064H401.841V48.384H388.413ZM414.534 63.288C412.926 63.288 411.486 62.976 410.214 62.352C408.966 61.728 407.994 60.78 407.298 59.508C406.602 58.212 406.254 56.568 406.254 54.576V43.632H411.87V53.748C411.87 55.356 412.206 56.544 412.878 57.312C413.574 58.056 414.546 58.428 415.794 58.428C416.658 58.428 417.426 58.248 418.098 57.888C418.77 57.504 419.298 56.928 419.682 56.16C420.066 55.368 420.258 54.384 420.258 53.208V43.632H425.874V63H420.546V57.672L421.518 59.22C420.87 60.564 419.91 61.584 418.638 62.28C417.39 62.952 416.022 63.288 414.534 63.288ZM431.076 63V43.632H436.44V49.104L435.684 47.52C436.26 46.152 437.184 45.12 438.456 44.424C439.728 43.704 441.276 43.344 443.1 43.344V48.528C442.86 48.504 442.644 48.492 442.452 48.492C442.26 48.468 442.056 48.456 441.84 48.456C440.304 48.456 439.056 48.9 438.096 49.788C437.16 50.652 436.692 52.008 436.692 53.856V63H431.076ZM455.911 63.288C453.703 63.288 451.759 62.856 450.079 61.992C448.423 61.128 447.139 59.952 446.227 58.464C445.315 56.952 444.859 55.236 444.859 53.316C444.859 51.372 445.303 49.656 446.191 48.168C447.103 46.656 448.339 45.48 449.899 44.64C451.459 43.776 453.223 43.344 455.191 43.344C457.087 43.344 458.791 43.752 460.303 44.568C461.839 45.36 463.051 46.512 463.939 48.024C464.827 49.512 465.271 51.3 465.271 53.388C465.271 53.604 465.259 53.856 465.235 54.144C465.211 54.408 465.187 54.66 465.163 54.9H449.431V51.624H462.211L460.051 52.596C460.051 51.588 459.847 50.712 459.439 49.968C459.031 49.224 458.467 48.648 457.747 48.24C457.027 47.808 456.187 47.592 455.227 47.592C454.267 47.592 453.415 47.808 452.671 48.24C451.951 48.648 451.387 49.236 450.979 50.004C450.571 50.748 450.367 51.636 450.367 52.668V53.532C450.367 54.588 450.595 55.524 451.051 56.34C451.531 57.132 452.191 57.744 453.031 58.176C453.895 58.584 454.903 58.788 456.055 58.788C457.087 58.788 457.987 58.632 458.755 58.32C459.547 58.008 460.267 57.54 460.915 56.916L463.903 60.156C463.015 61.164 461.899 61.944 460.555 62.496C459.211 63.024 457.663 63.288 455.911 63.288Z" fill="white"/>
<path d="M85.39 63.288C83.326 63.288 81.49 62.856 79.882 61.992C78.298 61.128 77.038 59.952 76.102 58.464C75.19 56.952 74.734 55.236 74.734 53.316C74.734 51.372 75.19 49.656 76.102 48.168C77.038 46.656 78.298 45.48 79.882 44.64C81.49 43.776 83.326 43.344 85.39 43.344C87.43 43.344 89.254 43.776 90.862 44.64C92.47 45.48 93.73 46.644 94.642 48.132C95.554 49.62 96.01 51.348 96.01 53.316C96.01 55.236 95.554 56.952 94.642 58.464C93.73 59.952 92.47 61.128 90.862 61.992C89.254 62.856 87.43 63.288 85.39 63.288ZM85.39 58.68C86.326 58.68 87.166 58.464 87.91 58.032C88.654 57.6 89.242 56.988 89.674 56.196C90.106 55.38 90.322 54.42 90.322 53.316C90.322 52.188 90.106 51.228 89.674 50.436C89.242 49.644 88.654 49.032 87.91 48.6C87.166 48.168 86.326 47.952 85.39 47.952C84.454 47.952 83.614 48.168 82.87 48.6C82.126 49.032 81.526 49.644 81.07 50.436C80.638 51.228 80.422 52.188 80.422 53.316C80.422 54.42 80.638 55.38 81.07 56.196C81.526 56.988 82.126 57.6 82.87 58.032C83.614 58.464 84.454 58.68 85.39 58.68ZM103.665 63L96.6805 43.632H101.973L107.769 60.3H105.249L111.297 43.632H116.049L121.917 60.3H119.397L125.373 43.632H130.341L123.321 63H117.885L112.737 48.708H114.393L109.065 63H103.665ZM144.723 43.344C146.259 43.344 147.627 43.656 148.827 44.28C150.051 44.88 151.011 45.816 151.707 47.088C152.403 48.336 152.751 49.944 152.751 51.912V63H147.135V52.776C147.135 51.216 146.787 50.064 146.091 49.32C145.419 48.576 144.459 48.204 143.211 48.204C142.323 48.204 141.519 48.396 140.799 48.78C140.103 49.14 139.551 49.704 139.143 50.472C138.759 51.24 138.567 52.224 138.567 53.424V63H132.951V43.632H138.315V48.996L137.307 47.376C138.003 46.08 138.999 45.084 140.295 44.388C141.591 43.692 143.067 43.344 144.723 43.344ZM167.595 63.288C165.387 63.288 163.443 62.856 161.763 61.992C160.107 61.128 158.823 59.952 157.911 58.464C156.999 56.952 156.543 55.236 156.543 53.316C156.543 51.372 156.987 49.656 157.875 48.168C158.787 46.656 160.023 45.48 161.583 44.64C163.143 43.776 164.907 43.344 166.875 43.344C168.771 43.344 170.475 43.752 171.987 44.568C173.523 45.36 174.735 46.512 175.623 48.024C176.511 49.512 176.955 51.3 176.955 53.388C176.955 53.604 176.943 53.856 176.919 54.144C176.895 54.408 176.871 54.66 176.847 54.9H161.115V51.624H173.895L171.735 52.596C171.735 51.588 171.531 50.712 171.123 49.968C170.715 49.224 170.151 48.648 169.431 48.24C168.711 47.808 167.871 47.592 166.911 47.592C165.951 47.592 165.099 47.808 164.355 48.24C163.635 48.648 163.071 49.236 162.663 50.004C162.255 50.748 162.051 51.636 162.051 52.668V53.532C162.051 54.588 162.279 55.524 162.735 56.34C163.215 57.132 163.875 57.744 164.715 58.176C165.579 58.584 166.587 58.788 167.739 58.788C168.771 58.788 169.671 58.632 170.439 58.32C171.231 58.008 171.951 57.54 172.599 56.916L175.587 60.156C174.699 61.164 173.583 61.944 172.239 62.496C170.895 63.024 169.347 63.288 167.595 63.288ZM180.694 63V43.632H186.058V49.104L185.302 47.52C185.878 46.152 186.802 45.12 188.074 44.424C189.346 43.704 190.894 43.344 192.718 43.344V48.528C192.478 48.504 192.262 48.492 192.07 48.492C191.878 48.468 191.674 48.456 191.458 48.456C189.922 48.456 188.674 48.9 187.714 49.788C186.778 50.652 186.31 52.008 186.31 53.856V63H180.694ZM195.161 55.116V50.616H205.349V55.116H195.161ZM219.479 63.288C217.391 63.288 215.531 62.868 213.899 62.028C212.267 61.164 210.983 59.976 210.047 58.464C209.135 56.952 208.679 55.236 208.679 53.316C208.679 51.372 209.135 49.656 210.047 48.168C210.983 46.656 212.267 45.48 213.899 44.64C215.531 43.776 217.391 43.344 219.479 43.344C221.519 43.344 223.295 43.776 224.807 44.64C226.319 45.48 227.435 46.692 228.155 48.276L223.799 50.616C223.295 49.704 222.659 49.032 221.891 48.6C221.147 48.168 220.331 47.952 219.443 47.952C218.483 47.952 217.619 48.168 216.851 48.6C216.083 49.032 215.471 49.644 215.015 50.436C214.583 51.228 214.367 52.188 214.367 53.316C214.367 54.444 214.583 55.404 215.015 56.196C215.471 56.988 216.083 57.6 216.851 58.032C217.619 58.464 218.483 58.68 219.443 58.68C220.331 58.68 221.147 58.476 221.891 58.068C222.659 57.636 223.295 56.952 223.799 56.016L228.155 58.392C227.435 59.952 226.319 61.164 224.807 62.028C223.295 62.868 221.519 63.288 219.479 63.288ZM240.755 63.288C238.547 63.288 236.603 62.856 234.923 61.992C233.267 61.128 231.983 59.952 231.071 58.464C230.159 56.952 229.703 55.236 229.703 53.316C229.703 51.372 230.147 49.656 231.035 48.168C231.947 46.656 233.183 45.48 234.743 44.64C236.303 43.776 238.067 43.344 240.035 43.344C241.931 43.344 243.635 43.752 245.147 44.568C246.683 45.36 247.895 46.512 248.783 48.024C249.671 49.512 250.115 51.3 250.115 53.388C250.115 53.604 250.103 53.856 250.079 54.144C250.055 54.408 250.031 54.66 250.007 54.9H234.275V51.624H247.055L244.895 52.596C244.895 51.588 244.691 50.712 244.283 49.968C243.875 49.224 243.311 48.648 242.591 48.24C241.871 47.808 241.031 47.592 240.071 47.592C239.111 47.592 238.259 47.808 237.515 48.24C236.795 48.648 236.231 49.236 235.823 50.004C235.415 50.748 235.211 51.636 235.211 52.668V53.532C235.211 54.588 235.439 55.524 235.895 56.34C236.375 57.132 237.035 57.744 237.875 58.176C238.739 58.584 239.747 58.788 240.899 58.788C241.931 58.788 242.831 58.632 243.599 58.32C244.391 58.008 245.111 57.54 245.759 56.916L248.747 60.156C247.859 61.164 246.743 61.944 245.399 62.496C244.055 63.024 242.507 63.288 240.755 63.288ZM265.626 43.344C267.162 43.344 268.53 43.656 269.73 44.28C270.954 44.88 271.914 45.816 272.61 47.088C273.306 48.336 273.654 49.944 273.654 51.912V63H268.038V52.776C268.038 51.216 267.69 50.064 266.994 49.32C266.322 48.576 265.362 48.204 264.114 48.204C263.226 48.204 262.422 48.396 261.702 48.78C261.006 49.14 260.454 49.704 260.046 50.472C259.662 51.24 259.47 52.224 259.47 53.424V63H253.854V43.632H259.218V48.996L258.21 47.376C258.906 46.08 259.902 45.084 261.198 44.388C262.494 43.692 263.97 43.344 265.626 43.344ZM286.664 63.288C284.384 63.288 282.608 62.712 281.336 61.56C280.064 60.384 279.428 58.644 279.428 56.34V39.348H285.044V56.268C285.044 57.084 285.26 57.72 285.692 58.176C286.124 58.608 286.712 58.824 287.456 58.824C288.344 58.824 289.1 58.584 289.724 58.104L291.236 62.064C290.66 62.472 289.964 62.784 289.148 63C288.356 63.192 287.528 63.288 286.664 63.288ZM276.44 48.384V44.064H289.868V48.384H276.44ZM294.389 63V43.632H299.753V49.104L298.997 47.52C299.573 46.152 300.497 45.12 301.769 44.424C303.041 43.704 304.589 43.344 306.413 43.344V48.528C306.173 48.504 305.957 48.492 305.765 48.492C305.573 48.468 305.369 48.456 305.153 48.456C303.617 48.456 302.369 48.9 301.409 49.788C300.473 50.652 300.005 52.008 300.005 53.856V63H294.389ZM309.787 63V43.632H315.403V63H309.787ZM312.595 40.932C311.563 40.932 310.723 40.632 310.075 40.032C309.427 39.432 309.103 38.688 309.103 37.8C309.103 36.912 309.427 36.168 310.075 35.568C310.723 34.968 311.563 34.668 312.595 34.668C313.627 34.668 314.467 34.956 315.115 35.532C315.763 36.084 316.087 36.804 316.087 37.692C316.087 38.628 315.763 39.408 315.115 40.032C314.491 40.632 313.651 40.932 312.595 40.932ZM329.975 63.288C327.887 63.288 326.027 62.868 324.395 62.028C322.763 61.164 321.479 59.976 320.543 58.464C319.631 56.952 319.175 55.236 319.175 53.316C319.175 51.372 319.631 49.656 320.543 48.168C321.479 46.656 322.763 45.48 324.395 44.64C326.027 43.776 327.887 43.344 329.975 43.344C332.015 43.344 333.791 43.776 335.303 44.64C336.815 45.48 337.931 46.692 338.651 48.276L334.295 50.616C333.791 49.704 333.155 49.032 332.387 48.6C331.643 48.168 330.827 47.952 329.939 47.952C328.979 47.952 328.115 48.168 327.347 48.6C326.579 49.032 325.967 49.644 325.511 50.436C325.079 51.228 324.863 52.188 324.863 53.316C324.863 54.444 325.079 55.404 325.511 56.196C325.967 56.988 326.579 57.6 327.347 58.032C328.115 58.464 328.979 58.68 329.939 58.68C330.827 58.68 331.643 58.476 332.387 58.068C333.155 57.636 333.791 56.952 334.295 56.016L338.651 58.392C337.931 59.952 336.815 61.164 335.303 62.028C333.791 62.868 332.015 63.288 329.975 63.288Z" fill="url(#paint0_linear_463_418)"/>
<defs>
<linearGradient id="paint0_linear_463_418" x1="349.5" y1="63" x2="57.3016" y2="41.4851" gradientUnits="userSpaceOnUse">
<stop offset="0.046875" stop-color="#6AF7FF"/>
<stop offset="0.359375" stop-color="#3271FF"/>
<stop offset="0.640625" stop-color="#5648FF"/>
<stop offset="0.947917" stop-color="#FF4A93"/>
</linearGradient>
</defs>
</svg>
